# xmcd
# 
# Track frame offsets:
#     150
#     15242
#     41415
#     57910
#     80507
#     95150
#     114282
#     134817
#     147480
#     167692
#     186685
# 
# Disc length: 2700
# 
# Revision: 2
# Processed by: cddbd v1.5.2PL0 Copyright (c) Steve Scherf et al.
# Submitted via: fre:ac v1.1beta1pre5
# 
DISCID=9b0a8a0b
DTITLE=Smokey Wilson and The William Clarke Band - Smokey Wilson and The William Clarke Band
DYEAR=1986
DGENRE=
TTITLE0=Down in Virginia
TTITLE1=Wish I Was Single
TTITLE2=Howling Wolf
TTITLE3=Tell Me What Do You See
TTITLE4=Bar Room Blues
TTITLE5=Cold Chills
TTITLE6=Ghetto Woman
TTITLE7=Dimples
TTITLE8=Lein On My Body
TTITLE9=The Things I Used To Do
TTITLE10=Truckload Of Love
EXTD=
EXTT0=
EXTT1=
EXTT2=
EXTT3=
EXTT4=
EXTT5=
EXTT6=
EXTT7=
EXTT8=
EXTT9=
EXTT10=
PLAYORDER=
